<?xml version="1.0" standalone="no"?><!DOCTYPE svg PUBLIC "-//W3C//DTD SVG 1.1//EN" "http://www.w3.org/Graphics/SVG/1.1/DTD/svg11.dtd"><svg xmlns="http://www.w3.org/2000/svg" width="1400" height="900" viewBox="0 0 1400 900" style="font-family: &quot;Helvetica Neue&quot;, Helvetica, Arial, sans-serif;"><g class="sankey" transform="translate(100,10)"><g class="groups"><g class="group" transform="translate(0,88)" style="display: inline;"><rect x="-10" y="-20" width="21" height="734.0000000000001" style="fill: rgb(238, 238, 238); stroke: rgb(187, 187, 187); stroke-width: 0.5;"/><text x="-10" y="-25" style="fill: rgb(153, 153, 153);">Primary energy supply</text></g><g class="group" transform="translate(399.6666666666667,88)" style="display: none;"><rect x="-10" y="-20" width="21" height="459.6374976992138" style="fill: rgb(238, 238, 238); stroke: rgb(187, 187, 187); stroke-width: 0.5;"/><text x="-10" y="-25" style="fill: rgb(153, 153, 153);"/></g><g class="group" transform="translate(799.3333333333334,88)" style="display: none;"><rect x="-10" y="-20" width="21" height="734" style="fill: rgb(238, 238, 238); stroke: rgb(187, 187, 187); stroke-width: 0.5;"/><text x="-10" y="-25" style="fill: rgb(153, 153, 153);"/></g><g class="group" transform="translate(1199,88)" style="display: none;"><rect x="-10" y="-20" width="21" height="733.9999999999999" style="fill: rgb(238, 238, 238); stroke: rgb(187, 187, 187); stroke-width: 0.5;"/><text x="-10" y="-25" style="fill: rgb(153, 153, 153);"/></g></g><g class="links"><g class="link" style="opacity: 0.8;"><path d="M800.3333333333334,192.28075983601045 A301.92394229555504 301.92394229555504 0.25154078738099517 0 1 875.4811618463751,201.78228370051545 L1122.29170257435,265.20859789813983 A308.1934904015606 308.1934904015606 0.25154078738099517 0 0 1199,274.90742397225415 L1199,276.90742397225415 A310.1934904015606 310.1934904015606 0.25154078738099517 0 1 1121.7939094683002,267.1456580478433 L874.9833687403253,203.71934385021893 A299.92394229555504 299.92394229555504 0.25154078738099517 0 0 800.3333333333334,194.28075983601045 Z" style="fill: rgb(144, 238, 144);"/><title>Industry → Machinery
Renewables
5.79m</title><text class="label" dy="0.35em" x="804.3333333333334" y="193.28075983601045"/></g><g class="link" style="opacity: 0.8;"><path d="M400.6666666666667,105.0816763264233 A130.04436298377252 130.04436298377252 0.9138506039648853 0 1 503.6437484326467,155.70779849098693 L704.8694650726522,416.62565391197774 A119.2934715402049 119.2934715402049 0.9138506039648853 0 0 799.3333333333334,463.0664663013846 L799.3333333333334,465.0664663013846 A121.2934715402049 121.2934715402049 0.9138506039648853 0 1 703.2857427273964,417.8470561934302 L502.06002608739084,156.92920077243946 A128.04436298377252 128.04436298377252 0.9138506039648853 0 0 400.6666666666667,107.0816763264233 Z" style="fill: rgb(0, 0, 0);"/><title> → Agriculture
Coal
17.5m</title><text class="label" dy="0.35em" x="404.6666666666667" y="106.0816763264233"/></g><g class="link" style="opacity: 0.8;"><path d="M400.6666666666667,442.6160754083362 A1001 1001 0.06597159892201065 0 1 466.65634558736684,444.79358753777217 L733.4755019229642,462.4216552578091 A999 999 0.06597159892201065 0 0 799.3333333333334,464.59481671365984 L799.3333333333334,466.59481671365984 A1001 1001 0.06597159892201065 0 1 733.3436544126332,464.41730458422387 L466.52449807703573,446.78923686418693 A999 999 0.06597159892201065 0 0 400.6666666666667,444.6160754083362 Z" style="fill: rgb(70, 130, 180);"/><title>   → Agriculture
Gas
130m</title><text class="label" dy="0.35em" x="404.6666666666667" y="443.6160754083362"/></g><g class="link" style="opacity: 0.8;"><path d="M800.3333333333334,192.21459792385224 A301.9901042077132 301.9901042077132 0.2515407873809956 0 1 875.497629318253,201.71820389878056 L1122.3081700462276,265.1445180964049 A308.12732848940243 308.12732848940243 0.2515407873809956 0 0 1199,274.84126206009597 L1199,276.84126206009597 A310.12732848940243 310.12732848940243 0.2515407873809956 0 1 1121.8103769401778,267.0815782461084 L874.9998362122031,203.65526404848404 A299.9901042077132 299.9901042077132 0.2515407873809956 0 0 800.3333333333334,194.21459792385224 Z" style="fill: rgb(105, 105, 105);"/><title>Industry → Machinery
Heat
225m</title><text class="label" dy="0.35em" x="804.3333333333334" y="193.21459792385224"/></g><g class="link" style="opacity: 0.8;"><path d="M800.3333333333334,161.19290824105238 A411.4562547821679 411.4562547821679 0.18608594954471092 0 0 876.4584366804734,154.08949225163425 L1124.5090777756127,107.3904737778943 A402.6235042854314 402.6235042854314 0.18608594954471092 0 1 1199,100.43954714883913 L1199,102.43954714883913 A400.6235042854314 400.6235042854314 0.18608594954471092 0 0 1124.8791054636713,109.35594560676137 L876.828464368532,156.05496408050132 A413.4562547821679 413.4562547821679 0.18608594954471092 0 1 800.3333333333334,163.19290824105238 Z" style="fill: rgb(105, 105, 105);"/><title>Industry → Iron and steel
Heat
240m</title><text class="label" dy="0.35em" x="804.3333333333334" y="162.19290824105238"/></g><g class="link" style="opacity: 0.8;"><path d="M800.3333333333334,358.55092419667176 A187.70479229172187 187.70479229172187 0.8521983016267152 0 1 941.6242547753293,422.68401840444653 L1105.5150617473332,610.0754963237332 A124.1946102271338 124.1946102271338 0.8521983016267152 0 0 1199,652.5090673612581 L1199,654.5090673612581 A126.1946102271338 126.1946102271338 0.8521983016267152 0 1 1104.009602885927,611.392156346903 L940.1187959139231,424.0006784276163 A185.70479229172187 185.70479229172187 0.8521983016267152 0 0 800.3333333333334,360.55092419667176 Z" style="fill: rgb(0, 0, 0);"/><title>Buildings → Services
Coal
632m</title><text class="label" dy="0.35em" x="804.3333333333334" y="359.55092419667176"/></g><g class="link" style="opacity: 0.8;"><path d="M800.3333333333334,161.2927460047093 A411.55609254582475 411.55609254582475 0.18608594954471092 0 0 876.4769080489068,154.18760640759666 L1124.5275491440461,107.48858793385668 A402.52366652177454 402.52366652177454 0.18608594954471092 0 1 1199,100.53938491249603 L1199,102.53938491249603 A400.52366652177454 400.52366652177454 0.18608594954471092 0 0 1124.8975768321047,109.45405976272374 L876.8469357369654,156.15307823646373 A413.55609254582475 413.55609254582475 0.18608594954471092 0 1 800.3333333333334,163.2927460047093 Z" style="fill: rgb(144, 238, 144);"/><title>Industry → Iron and steel
Renewables
753m</title><text class="label" dy="0.35em" x="804.3333333333334" y="162.2927460047093"/></g><g class="link" style="opacity: 0.8;"><path d="M800.3333333333334,192.24978126745629 A301.95492086410917 301.95492086410917 0.2515407873809956 0 1 875.488872305306,201.75228002519492 L1122.2994130332806,265.17859422281924 A308.1625118330065 308.1625118330065 0.2515407873809956 0 0 1199,274.8764454037 L1199,276.8764454037 A310.1625118330065 310.1625118330065 0.2515407873809956 0 1 1121.8016199272308,267.1156543725227 L874.9910791992562,203.6893401748984 A299.95492086410917 299.95492086410917 0.2515407873809956 0 0 800.3333333333334,194.24978126745629 Z" style="fill: rgb(255, 140, 0);"/><title>Industry → Machinery
Oil
1.61</title><text class="label" dy="0.35em" x="804.3333333333334" y="193.24978126745629"/></g><g class="link" style="opacity: 0.8;"><path d="M400.6666666666667,516.5138396616476 A466.30204076549455 466.30204076549455 0.158583328990761 0 0 474.3048382415809,510.6626789139552 L725.3793228165434,470.50928410993305 A468.30204076549455 468.30204076549455 0.158583328990761 0 1 799.3333333333334,464.63302735048785 L799.3333333333334,466.63302735048785 A466.30204076549455 466.30204076549455 0.158583328990761 0 0 725.6951617584191,472.48418809818025 L474.62067718345656,512.6375829022024 A468.30204076549455 468.30204076549455 0.158583328990761 0 1 400.6666666666667,518.5138396616476 Z" style="fill: rgb(144, 238, 144);"/><title>     → Agriculture
Renewables
1.86</title><text class="label" dy="0.35em" x="404.6666666666667" y="517.5138396616476"/></g><g class="link" style="opacity: 0.8;"><path d="M800.3333333333334,161.23790050062664 A411.5012470417421 411.5012470417421 0.18608594954471092 0 0 876.4667608713688,154.1337077609894 L1124.517401966508,107.4346892872494 A402.5785120258572 402.5785120258572 0.18608594954471092 0 1 1199,100.48453940841334 L1199,102.48453940841334 A400.5785120258572 400.5785120258572 0.18608594954471092 0 0 1124.8874296545666,109.40016111611646 L876.8367885594274,156.09917958985648 A413.5012470417421 413.5012470417421 0.18608594954471092 0 1 800.3333333333334,163.23790050062664 Z" style="fill: rgb(255, 140, 0);"/><title>Industry → Iron and steel
Oil
2.10</title><text class="label" dy="0.35em" x="804.3333333333334" y="162.23790050062664"/></g><g class="link" style="opacity: 0.8;"><path d="M400.6666666666667,516.5935257200794 A176.40319438615765 176.40319438615765 0.4605665952141229 0 1 479.070078037114,534.9745948353848 L721.8188334323554,655.415517246063 A174.40319438615765 174.40319438615765 0.4605665952141229 0 0 799.3333333333334,673.5881879910411 L799.3333333333334,675.5881879910411 A176.40319438615765 176.40319438615765 0.4605665952141229 0 1 720.929921962886,657.2071188757357 L478.18116656764465,536.7661964650574 A174.40319438615765 174.40319438615765 0.4605665952141229 0 0 400.6666666666667,518.5935257200794 Z" style="fill: rgb(144, 238, 144);"/><title>     → Losses
Renewables
2.29</title><text class="label" dy="0.35em" x="404.6666666666667" y="517.5935257200794"/></g><g class="link" style="opacity: 0.8;"><path d="M800.3333333333334,262.0355060085443 A210.51625445496285 210.51625445496285 0.5741577190089849 0 1 914.6705555084492,295.79177343300057 L1115.4360660169561,425.65697180592167 A153.85686353906195 153.85686353906195 0.5741577190089849 0 0 1199,450.3279096589593 L1199,452.3279096589593 A155.85686353906195 155.85686353906195 0.5741577190089849 0 1 1114.3498104926864,427.33627193871325 L913.5842999841797,297.47107356579215 A208.51625445496285 208.51625445496285 0.5741577190089849 0 0 800.3333333333334,264.0355060085443 Z" style="fill: rgb(135, 206, 235);"/><title>Transport → Road
Electricity
2.29</title><text class="label" dy="0.35em" x="804.3333333333334" y="263.0355060085443"/></g><g class="link" style="opacity: 0.8;"><path d="M400.6666666666667,589.3918863913467 A124.06498158907144 124.06498158907144 1.0922441262790117 0 0 510.79450540515717,522.4581466186901 L690.4690786819269,176.11222795626762 A122.64148560207951 122.64148560207951 1.0922441262790117 0 1 799.3333333333334,109.94647209607652 L799.3333333333334,111.94647209607652 A120.64148560207951 120.64148560207951 1.0922441262790117 0 0 692.2444037950722,177.03321695871867 L512.5698305183024,523.3791356211411 A126.06498158907144 126.06498158907144 1.0922441262790117 0 1 400.6666666666667,591.3918863913467 Z" style="fill: rgb(105, 105, 105);"/><title>Electricity generation → Own use
Heat
4.82</title><text class="label" dy="0.35em" x="404.6666666666667" y="590.3918863913467"/></g><g class="link" style="opacity: 0.8;"><path d="M800.3333333333334,391.3793315022965 A154.87638498609715 154.87638498609715 0.9598193124630504 0 1 927.1907104552363,457.4080913309755 L1101.489841116699,706.2738377272914 A119.04724226446419 119.04724226446419 0.9598193124630504 0 0 1199,757.0274872811112 L1199,759.0274872811112 A121.04724226446419 121.04724226446419 0.9598193124630504 0 1 1099.851665262668,707.4211737161239 L925.5525346012055,458.555427319808 A152.87638498609715 152.87638498609715 0.9598193124630504 0 0 800.3333333333334,393.3793315022965 Z" style="fill: rgb(0, 0, 0);"/><title>Buildings → Residential
Coal
6.70</title><text class="label" dy="0.35em" x="804.3333333333334" y="392.3793315022965"/></g><g class="link" style="opacity: 0.8;"><path d="M400.6666666666667,104.9403890464065 A133.01663823055284 133.01663823055284 0.6977624878409895 0 1 486.13048621072545,136.02880942194957 L715.1545232539693,328.05874367389623 A131.01663823055284 131.01663823055284 0.6977624878409895 0 0 799.3333333333334,358.6797274822685 L799.3333333333334,360.6797274822685 A133.01663823055284 133.01663823055284 0.6977624878409895 0 1 713.8695137892746,329.5913071067254 L484.8454767460309,137.56137285477882 A131.01663823055284 131.01663823055284 0.6977624878409895 0 0 400.6666666666667,106.9403890464065 Z" style="fill: rgb(0, 0, 0);"/><title> → Buildings
Coal
7.34</title><text class="label" dy="0.35em" x="404.6666666666667" y="105.9403890464065"/></g><g class="link" style="opacity: 0.8;"><path d="M800.3333333333334,425.20847422392944 A121.04724226446419 121.04724226446419 0.9598193124630503 0 1 899.4816680706655,476.81478778891676 L1073.780798732128,725.6805341852327 A152.8763849860971 152.8763849860971 0.9598193124630503 0 0 1199,790.8566300027442 L1199,792.8566300027442 A154.8763849860971 154.8763849860971 0.9598193124630503 0 1 1072.142622878097,726.8278701740652 L897.8434922166347,477.9621237777493 A119.04724226446419 119.04724226446419 0.9598193124630503 0 0 800.3333333333334,427.20847422392944 Z" style="fill: rgb(144, 238, 144);"/><title>Buildings → Residential
Renewables
7.46</title><text class="label" dy="0.35em" x="804.3333333333334" y="426.20847422392944"/></g><g class="link" style="opacity: 0.8;"><path d="M800.3333333333334,317.4639906272792 A133.4818984536624 133.4818984536624 0.7129693390299686 0 1 887.6415375632708,349.97710831709674 L1114.1674995900134,545.85522832997 A129.69689738977937 129.69689738977937 0.7129693390299686 0 0 1199,577.4464068919227 L1199,579.4464068919227 A131.69689738977937 131.69689738977937 0.7129693390299686 0 1 1112.8593341347514,547.3680743702726 L886.3333721080088,351.48995435739926 A131.4818984536624 131.4818984536624 0.7129693390299686 0 0 800.3333333333334,319.4639906272792 Z" style="fill: rgb(135, 206, 235);"/><title>Transport → Other transport
Electricity
10.9</title><text class="label" dy="0.35em" x="804.3333333333334" y="318.4639906272792"/></g><g class="link" style="opacity: 0.8;"><path d="M800.3333333333334,386.9225292432115 A159.33318724518216 159.33318724518216 0.8521983016267151 0 1 920.2681126605136,441.36189748341667 L1084.1589196325174,628.7533754027033 A152.5662152736735 152.5662152736735 0.8521983016267151 0 0 1199,680.8806724077978 L1199,682.8806724077978 A154.5662152736735 154.5662152736735 0.8521983016267151 0 1 1082.6534607711112,630.0700354258731 L918.7626537991074,442.67855750658646 A157.33318724518216 157.33318724518216 0.8521983016267151 0 0 800.3333333333334,388.9225292432115 Z" style="fill: rgb(105, 105, 105);"/><title>Buildings → Services
Heat
12.7</title><text class="label" dy="0.35em" x="804.3333333333334" y="387.9225292432115"/></g><g class="link" style="opacity: 0.8;"><path d="M400.6666666666667,633.6660891328313 A168.33918433055604 168.33918433055604 0.8738529029217629 0 0 529.7504514086403,573.3799357535852 L704.1662762110697,365.0169256078008 A124.10811166657757 124.10811166657757 0.8738529029217629 0 1 799.3333333333334,320.57094183228236 L799.3333333333334,322.57094183228236 A122.10811166657757 122.10811166657757 0.8738529029217629 0 0 705.6998916346598,366.300679374115 L531.2840668322305,574.6636895198994 A170.33918433055604 170.33918433055604 0.8738529029217629 0 1 400.6666666666667,635.6660891328313 Z" style="fill: rgb(135, 206, 235);"/><title>Electricity generation → Transport
Electricity
13.2</title><text class="label" dy="0.35em" x="404.6666666666667" y="634.6660891328313"/></g><g class="link" style="opacity: 0.8;"><path d="M400.6666666666667,676.7243085005383 A0 0 0 0 0 400.6666666666667,676.7243085005383 L799.3333333333334,676.7243085005383 A0 0 0 0 0 799.3333333333334,676.7243085005383 L799.3333333333334,678.7243085005383 A0 0 0 0 0 799.3333333333334,678.7243085005383 L400.6666666666667,678.7243085005383 A0 0 0 0 0 400.6666666666667,678.7243085005383 Z" style="fill: rgb(105, 105, 105);"/><title>Electricity generation → Losses
Heat
14.8</title><text class="label" dy="0.35em" x="404.6666666666667" y="677.7243085005383"/></g><g class="link" style="opacity: 0.8;"><path d="M400.6666666666667,444.00272325218344 A139.38188168124714 139.38188168124714 0.6419446457441496 0 1 484.12214024765404,471.749069057177 L717.0753679589269,645.8981138775841 A137.38188168124714 137.38188168124714 0.6419446457441496 0 0 799.3333333333334,673.2463254994211 L799.3333333333334,675.2463254994211 A139.38188168124714 139.38188168124714 0.6419446457441496 0 1 715.8778597523461,647.4999796944276 L482.92463204107315,473.3509348740204 A137.38188168124714 137.38188168124714 0.6419446457441496 0 0 400.6666666666667,446.00272325218344 Z" style="fill: rgb(70, 130, 180);"/><title>   → Losses
Gas
15.5</title><text class="label" dy="0.35em" x="404.6666666666667" y="445.00272325218344"/></g><g class="link" style="opacity: 0.8;"><path d="M800.3333333333334,177.5243510760791 A1001 1001 0.029626933531333277 0 1 829.9855554552893,177.96363541549005 L1169.407023077089,188.02259594967123 A999 999 0.029626933531333277 0 0 1199,188.46100259809435 L1199,190.46100259809435 A1001 1001 0.029626933531333277 0 1 1169.3477778780443,190.02171825868342 L829.9263102562444,179.96275772450224 A999 999 0.029626933531333277 0 0 800.3333333333334,179.5243510760791 Z" style="fill: rgb(144, 238, 144);"/><title>Industry → Chemical
Renewables
18.0</title><text class="label" dy="0.35em" x="804.3333333333334" y="178.5243510760791"/></g><g class="link" style="opacity: 0.8;"><path d="M800.3333333333334,176.81773028214803 A1001 1001 0.029626933531333277 0 1 829.9855554552893,177.25701462155897 L1169.407023077089,187.31597515574015 A999 999 0.029626933531333277 0 0 1199,187.75438180416327 L1199,189.75438180416327 A1001 1001 0.029626933531333277 0 1 1169.3477778780443,189.31509746475234 L829.9263102562444,179.25613693057116 A999 999 0.029626933531333277 0 0 800.3333333333334,178.81773028214803 Z" style="fill: rgb(255, 140, 0);"/><title>Industry → Chemical
Oil
18.7</title><text class="label" dy="0.35em" x="804.3333333333334" y="177.81773028214803"/></g><g class="link" style="opacity: 0.8;"><path d="M400.6666666666667,105.4582211123981 A129.66781819779771 129.66781819779771 1.0437455122573747 0 1 512.7378134561458,169.90486841095358 L696.3438512026777,485.39965214482385 A119.16021052491699 119.16021052491699 1.0437455122573747 0 0 799.3333333333334,544.6238772953275 L799.3333333333334,546.6238772953275 A121.16021052491699 121.16021052491699 1.0437455122573747 0 1 694.6152627472364,486.4056252815007 L511.0092250007046,170.91084154763044 A127.66781819779771 127.66781819779771 1.0437455122573747 0 0 400.6666666666667,107.4582211123981 Z" style="fill: rgb(0, 0, 0);"/><title> → Non-energy
Coal
19.6</title><text class="label" dy="0.35em" x="404.6666666666667" y="106.4582211123981"/></g><g class="link" style="opacity: 0.8;"><path d="M800.3333333333334,161.78327885127393 A1001 1001 0.029626933531333277 0 1 829.9855554552893,162.22256319068487 L1169.407023077089,172.28152372486605 A999 999 0.029626933531333277 0 0 1199,172.71993037328917 L1199,174.71993037328917 A1001 1001 0.029626933531333277 0 1 1169.3477778780443,174.28064603387824 L829.9263102562444,164.22168549969706 A999 999 0.029626933531333277 0 0 800.3333333333334,163.78327885127393 Z" style="fill: rgb(0, 0, 0);"/><title>Industry → Chemical
Coal
24.8</title><text class="label" dy="0.35em" x="804.3333333333334" y="162.78327885127393"/></g><g class="link" style="opacity: 0.8;"><path d="M400.6666666666667,443.16170235278247 A158.10898737385986 158.10898737385986 0.5566999508012074 0 1 484.20945188819775,467.035616344845 L692.7036117719576,596.7944221494275 A201.80219339492095 201.80219339492095 0.5566999508012074 0 0 799.3333333333334,627.2658601653314 L799.3333333333334,629.2658601653314 A203.80219339492095 203.80219339492095 0.5566999508012074 0 1 691.6468371178516,598.4924290193898 L483.15267723409175,468.7336232148073 A156.10898737385986 156.10898737385986 0.5566999508012074 0 0 400.6666666666667,445.16170235278247 Z" style="fill: rgb(70, 130, 180);"/><title>   → Non-energy
Gas
28.3</title><text class="label" dy="0.35em" x="404.6666666666667" y="444.16170235278247"/></g><g class="link" style="opacity: 0.8;"><path d="M400.6666666666667,514.4317171170345 A150.66365016363582 150.66365016363582 0.5582303963395461 0 0 480.4711020959636,491.56003683586675 L718.4695257815289,342.9330937442346 A152.66365016363582 152.66365016363582 0.5582303963395461 0 1 799.3333333333334,319.7578010090167 L799.3333333333334,321.7578010090167 A150.66365016363582 150.66365016363582 0.5582303963395461 0 0 719.5288979040364,344.62948129018446 L481.5304742184712,493.2564243818166 A152.66365016363582 152.66365016363582 0.5582303963395461 0 1 400.6666666666667,516.4317171170345 Z" style="fill: rgb(144, 238, 144);"/><title>     → Transport
Renewables
29.1</title><text class="label" dy="0.35em" x="404.6666666666667" y="515.4317171170345"/></g><g class="link" style="opacity: 0.8;"><path d="M800.3333333333334,316.6948969244452 A155.85686353906195 155.85686353906195 0.5741577190089849 0 1 884.9835228406469,341.6865346446912 L1085.7490333491537,471.5517330176123 A208.51625445496285 208.51625445496285 0.5741577190089849 0 0 1199,504.98730057486017 L1199,506.98730057486017 A210.51625445496285 210.51625445496285 0.5741577190089849 0 1 1084.662777824884,473.2310331504039 L883.8972673163773,343.3658347774828 A153.85686353906195 153.85686353906195 0.5741577190089849 0 0 800.3333333333334,318.6948969244452 Z" style="fill: rgb(144, 238, 144);"/><title>Transport → Road
Renewables
29.1</title><text class="label" dy="0.35em" x="804.3333333333334" y="317.6948969244452"/></g><g class="link" style="opacity: 0.8;"><path d="M800.3333333333334,390.65048988213175 A155.60522660626194 155.60522660626194 0.8521983016267146 0 1 917.4619669710954,443.816125854025 L1081.3527739430995,631.2076037733116 A156.29417591259372 156.29417591259372 0.8521983016267146 0 0 1199,684.6086330467178 L1199,686.6086330467178 A158.29417591259372 158.29417591259372 0.8521983016267146 0 1 1079.8473150816933,632.5242637964814 L915.9565081096893,445.1327858771948 A153.60522660626194 153.60522660626194 0.8521983016267146 0 0 800.3333333333334,392.65048988213175 Z" style="fill: rgb(144, 238, 144);"/><title>Buildings → Services
Renewables
31.2</title><text class="label" dy="0.35em" x="804.3333333333334" y="391.65048988213175"/></g><g class="link" style="opacity: 0.8;"><path d="M400.6666666666667,420.11510399552054 A248.7601050046553 248.7601050046553 0.3061708514846633 0 0 475.64539574605294,408.54644071582953 L723.7517846894677,330.1173811166897 A250.7601050046553 250.7601050046553 0.3061708514846633 0 1 799.3333333333334,318.4557072372526 L799.3333333333334,320.4557072372526 A248.7601050046553 248.7601050046553 0.3061708514846633 0 0 724.3546042539472,332.02437051694363 L476.2482153105324,410.45343011608344 A250.7601050046553 250.7601050046553 0.3061708514846633 0 1 400.6666666666667,422.11510399552054 Z" style="fill: rgb(70, 130, 180);"/><title>   → Transport
Gas
38.6</title><text class="label" dy="0.35em" x="404.6666666666667" y="421.11510399552054"/></g><g class="link" style="opacity: 0.8;"><path d="M800.3333333333334,262.82205509907175 A209.7297053644354 209.7297053644354 0.5741577190089849 0 1 914.2433588611019,296.4521994290855 L1115.0088693696089,426.3173978020066 A154.6434126295894 154.6434126295894 0.5741577190089849 0 0 1199,451.11445874948674 L1199,453.11445874948674 A156.6434126295894 156.6434126295894 0.5741577190089849 0 1 1113.9226138453391,427.9966979347982 L913.1571033368324,298.1314995618771 A207.7297053644354 207.7297053644354 0.5741577190089849 0 0 800.3333333333334,264.82205509907175 Z" style="fill: rgb(70, 130, 180);"/><title>Transport → Road
Gas
38.6</title><text class="label" dy="0.35em" x="804.3333333333334" y="263.82205509907175"/></g><g class="link" style="opacity: 0.8;"><path d="M400.6666666666667,515.7347172505265 A204.08042038839528 204.08042038839528 0.381958514130063 0 0 476.73530862053616,501.0279478730313 L722.5192142601097,402.30012688887433 A206.08042038839528 206.08042038839528 0.381958514130063 0 1 799.3333333333334,387.4492303153501 L799.3333333333334,389.4492303153501 A204.08042038839528 204.08042038839528 0.381958514130063 0 0 723.264691379464,404.15599969284534 L477.48078573989034,502.8838206770023 A206.08042038839528 206.08042038839528 0.381958514130063 0 1 400.6666666666667,517.7347172505265 Z" style="fill: rgb(144, 238, 144);"/><title>     → Buildings
Renewables
38.7</title><text class="label" dy="0.35em" x="404.6666666666667" y="516.7347172505265"/></g><g class="link" style="opacity: 0.8;"><path d="M400.6666666666667,249.9319490510629 A208.4676419987591 208.4676419987591 0.6525182108788645 0 1 527.2459656949835,292.7601065721688 L712.7839283048148,434.54553487361324 A142.54108310913048 142.54108310913048 0.6525182108788645 0 0 799.3333333333334,463.8295614117137 L799.3333333333334,465.8295614117137 A144.54108310913048 144.54108310913048 0.6525182108788645 0 1 711.569549921535,436.1346494516794 L526.0315873117037,294.349221150235 A206.4676419987591 206.4676419987591 0.6525182108788645 0 0 400.6666666666667,251.9319490510629 Z" style="fill: rgb(255, 140, 0);"/><title>  → Agriculture
Oil
39.7</title><text class="label" dy="0.35em" x="404.6666666666667" y="250.9319490510629"/></g><g class="link" style="opacity: 0.8;"><path d="M400.6666666666667,251.49322768306533 A206.90636336675666 206.90636336675666 0.7712739795306047 0 1 544.8905976490331,310.04292307143294 L708.0851515404357,468.6914044498384 A130.90635742625477 130.90635742625477 0.7712739795306047 0 0 799.3333333333334,505.73486327339356 L799.3333333333334,507.73486327339356 A132.90635742625477 132.90635742625477 0.7712739795306047 0 1 706.6910529865239,470.12545090026504 L543.4964990951213,311.4769695218596 A204.90636336675666 204.90636336675666 0.7712739795306047 0 0 400.6666666666667,253.49322768306533 Z" style="fill: rgb(255, 140, 0);"/><title>  → Non-specified
Oil
41.6</title><text class="label" dy="0.35em" x="404.6666666666667" y="252.49322768306533"/></g><g class="link" style="opacity: 0.8;"><path d="M800.3333333333334,218.07777062064244 A183.41157438813576 183.41157438813576 0.4640255732160168 0 1 882.4194814981163,237.4720596422536 L1109.9878087992588,351.363759475654 A198.88698023803673 198.88698023803673 0.4640255732160168 0 0 1199,372.39444737111467 L1199,374.39444737111467 A200.88698023803673 200.88698023803673 0.4640255732160168 0 1 1109.0927055492198,353.1522756684154 L881.5243782480775,239.26057583501506 A181.41157438813576 181.41157438813576 0.4640255732160168 0 0 800.3333333333334,220.07777062064244 Z" style="fill: rgb(105, 105, 105);"/><title>Industry → Other industry
Heat
46.5</title><text class="label" dy="0.35em" x="804.3333333333334" y="219.07777062064244"/></g><g class="link" style="opacity: 0.8;"><path d="M800.3333333333334,191.15147019811178 A303.0532319334537 303.0532319334537 0.2515407873809956 0 1 875.7622381446148,200.68853272299216 L1122.5727788725894,264.1148469206165 A307.064200763662 307.064200763662 0.2515407873809956 0 0 1199,273.7781343343555 L1199,275.83694602121955 A309.123012450526 309.123012450526 0.2515407873809956 0 1 1122.0603477404015,266.1088679578006 L875.2498070124271,202.68255376017626 A300.99442024658964 300.99442024658964 0.2515407873809956 0 0 800.3333333333334,193.2102818849758 Z" style="fill: rgb(70, 130, 180);"/><title>Industry → Machinery
Gas
53.6</title><text class="label" dy="0.35em" x="804.3333333333334" y="192.1808760415438"/></g><g class="link" style="opacity: 0.8;"><path d="M800.3333333333334,159.96815995201027 A410.2315064931258 410.2315064931258 0.18608594954471092 0 0 876.2318412915495,152.88588812185156 L1124.2824823866886,106.1868696481116 A403.8482525744735 403.8482525744735 0.18608594954471092 0 1 1199,99.214798859797 L1199,101.4349313492847 A401.6281200849858 401.6281200849858 0.18608594954471092 0 0 1124.6932376328232,108.36867358033187 L876.6425965376839,155.06769205407187 A412.4516389826135 412.4516389826135 0.18608594954471092 0 1 800.3333333333334,162.18829244149796 Z" style="fill: rgb(70, 130, 180);"/><title>Industry → Iron and steel
Gas
57.8</title><text class="label" dy="0.35em" x="804.3333333333334" y="161.07822619675412"/></g><g class="link" style="opacity: 0.8;"><path d="M800.3333333333334,219.97141190849752 A181.51793310028071 181.51793310028071 0.46402557321601634 0 1 881.5719792625329,239.1654636955588 L1109.1403065636753,353.05716352895917 A200.78062152589177 200.78062152589177 0.46402557321601634 0 0 1199,374.2880886589697 L1199,376.7447033610179 A203.23723622794006 203.23723622794006 0.46402557321601634 0 1 1108.0408446617269,355.2540111159537 L880.4725173605844,241.36231128255338 A179.06131839823243 179.06131839823243 0.46402557321601634 0 0 800.3333333333334,222.4280266105458 Z" style="fill: rgb(255, 140, 0);"/><title>Industry → Other industry
Oil
63.9</title><text class="label" dy="0.35em" x="804.3333333333334" y="221.19971925952166"/></g><g class="link" style="opacity: 0.8;"><path d="M400.6666666666667,672.0788437284399 A206.75193892616466 206.75193892616466 0.6298506759861202 0 0 522.4485400644875,632.4063456723167 L712.312275428382,494.01731789894734 A147.73768827222415 147.73768827222415 0.6298506759861202 0 1 799.3333333333334,465.66874142978503 L799.3333333333334,468.22205767152064 A145.18437203048853 145.18437203048853 0.6298506759861202 0 0 713.8162402129963,496.0806922607517 L523.9525048491017,634.469720034121 A209.30525516790027 209.30525516790027 0.6298506759861202 0 1 400.6666666666667,674.6321599701756 Z" style="fill: rgb(135, 206, 235);"/><title>Electricity generation → Agriculture
Electricity
66.4</title><text class="label" dy="0.35em" x="404.6666666666667" y="673.3555018493078"/></g><g class="link" style="opacity: 0.8;"><path d="M400.6666666666667,404.9541291690564 A122.68597368168236 122.68597368168236 0.8079424606778404 0 0 489.35230498231033,367.0425955903279 L704.5158768908093,141.9521238183504 A131.1686106860848 131.1686106860848 0.8079424606778404 0 1 799.3333333333334,101.4193470120712 L799.3333333333334,104.1920834039436 A128.3958742942124 128.3958742942124 0.8079424606778404 0 0 706.5201964508612,143.86804923443702 L491.3566245423623,368.95852100641446 A125.45871007355476 125.45871007355476 0.8079424606778404 0 1 400.6666666666667,407.7268655609288 Z" style="fill: rgb(70, 130, 180);"/><title>   → Own use
Gas
72.1</title><text class="label" dy="0.35em" x="404.6666666666667" y="406.3404973649926"/></g><g class="link" style="opacity: 0.8;"><path d="M400.6666666666667,674.6321599701755 A0 0 0 0 0 400.6666666666667,674.6321599701755 L799.3333333333334,674.6321599701755 A0 0 0 0 0 799.3333333333334,674.6321599701755 L799.3333333333334,677.4398803479064 A0 0 0 0 0 799.3333333333334,677.4398803479064 L400.6666666666667,677.4398803479064 A0 0 0 0 0 400.6666666666667,677.4398803479064 Z" style="fill: rgb(135, 206, 235);"/><title>Electricity generation → Losses
Electricity
73.1</title><text class="label" dy="0.35em" x="404.6666666666667" y="676.036020159041"/></g><g class="link" style="opacity: 0.8;"><path d="M800.3333333333334,222.4280266105458 A179.06131839823243 179.06131839823243 0.46402557321601634 0 1 880.4725173605846,241.36231128255338 L1108.0408446617269,355.25401111595374 A203.23723622794006 203.23723622794006 0.46402557321601634 0 0 1199,376.74470336101797 L1199,379.5938499242991 A206.08638279122118 206.08638279122118 0.46402557321601634 0 1 1106.765704487412,357.8018834979432 L879.1973771862695,243.91018366454284 A176.2121718349513 176.2121718349513 0.46402557321601634 0 0 800.3333333333334,225.27717317382692 Z" style="fill: rgb(144, 238, 144);"/><title>Industry → Other industry
Renewables
74.1</title><text class="label" dy="0.35em" x="804.3333333333334" y="223.85259989218636"/></g><g class="link" style="opacity: 0.8;"><path d="M800.3333333333334,388.16708866251145 A158.0886278258822 158.0886278258822 0.8521983016267151 0 1 919.3312961573478,442.18122830034247 L1083.2221031293516,629.5727062196291 A153.81077469297344 153.81077469297344 0.8521983016267151 0 0 1199,682.1252318270977 L1199,685.0085947121499 A156.69413757802567 156.69413757802567 0.8521983016267151 0 1 1081.0517110263759,631.470910541149 L917.1609040543718,444.07943262186234 A155.20526494082998 155.20526494082998 0.8521983016267151 0 0 800.3333333333334,391.0504515475636 Z" style="fill: rgb(255, 140, 0);"/><title>Buildings → Services
Oil
75.0</title><text class="label" dy="0.35em" x="804.3333333333334" y="389.60877010503754"/></g><g class="link" style="opacity: 0.8;"><path d="M800.3333333333334,170.86277997464236 A1001.5088071584746 1001.5088071584746 0.029626933531333277 0 1 830.0006276459789,171.30228760178207 L1169.4220952677788,181.36124813596325 A998.4911928415254 998.4911928415254 0.029626933531333277 0 0 1199,181.7994314966576 L1199,184.8170458136067 A1001.5088071584746 1001.5088071584746 0.029626933531333277 0 1 1169.3327056873545,184.377538186467 L829.9112380655548,174.31857765228582 A998.4911928415254 998.4911928415254 0.029626933531333277 0 0 800.3333333333334,173.88039429159147 Z" style="fill: rgb(70, 130, 180);"/><title>Industry → Chemical
Gas
78.5</title><text class="label" dy="0.35em" x="804.3333333333334" y="172.37158713311692"/></g><g class="link" style="opacity: 0.8;"><path d="M800.3333333333334,318.67349252844485 A132.27239655249673 132.27239655249673 0.7129693390299688 0 1 886.8504232606815,350.8920033980552 L1113.3763852874242,546.7701234109285 A130.90639929094505 130.90639929094505 0.7129693390299688 0 0 1199,578.6559087930884 L1199,581.8069071185232 A134.05739761637983 134.05739761637983 0.7129693390299688 0 1 1111.3153717079629,549.1536110807455 L884.7894096812204,353.27549106787217 A129.12139822706195 129.12139822706195 0.7129693390299688 0 0 800.3333333333334,321.82449085387964 Z" style="fill: rgb(255, 140, 0);"/><title>Transport → Other transport
Oil
82.0</title><text class="label" dy="0.35em" x="804.3333333333334" y="320.24899169116225"/></g><g class="link" style="opacity: 0.8;"><path d="M800.3333333333334,422.8192964097602 A123.43642007863343 123.43642007863343 0.9598193124630504 0 1 901.4386147737446,475.44419294395846 L1075.737745435207,724.3099393402745 A150.48720717192788 150.48720717192788 0.9598193124630504 0 0 1199,788.467452188575 L1199,791.7132600054886 A153.73301498884138 153.73301498884138 0.9598193124630504 0 1 1073.079143438961,726.1719554008639 L898.7800127774985,477.3062090045479 A120.1906122617199 120.1906122617199 0.9598193124630504 0 0 800.3333333333334,426.0651042266737 Z" style="fill: rgb(255, 140, 0);"/><title>Buildings → Residential
Oil
84.5</title><text class="label" dy="0.35em" x="804.3333333333334" y="424.442200318217"/></g><g class="link" style="opacity: 0.8;"><path d="M400.6666666666667,184.99913377786947 A998.3404302761159 998.3404302761159 0.0705552287489184 0 0 471.0463779905229,182.51527498073466 L728.7196336132415,164.3048520483714 A1001.6595697238841 1001.6595697238841 0.0705552287489184 0 1 799.3333333333334,161.8127352728294 L799.3333333333334,165.13187472059758 A998.3404302761159 998.3404302761159 0.0705552287489184 0 0 728.9536220094772,167.6157335177324 L471.28036638675854,185.82615645009565 A1001.6595697238841 1001.6595697238841 0.0705552287489184 0 1 400.6666666666667,188.31827322563765 Z" style="fill: rgb(255, 140, 0);"/><title>  → Industry
Oil
86.4</title><text class="label" dy="0.35em" x="404.6666666666667" y="186.65870350175356"/></g><g class="link" style="opacity: 0.8;"><path d="M800.3333333333334,419.49170799086914 A126.76400849752451 126.76400849752451 0.9598193124630503 0 1 904.1642022737345,473.53526196945035 L1078.463332935197,722.4010083657663 A147.1596187530368 147.1596187530368 0.9598193124630503 0 0 1199,785.1398637696839 L1199,788.467452188575 A150.48720717192788 150.48720717192788 0.9598193124630503 0 1 1075.737745435207,724.3099393402745 L901.4386147737445,475.4441929439584 A123.43642007863343 123.43642007863343 0.9598193124630503 0 0 800.3333333333334,422.8192964097602 Z" style="fill: rgb(105, 105, 105);"/><title>Buildings → Residential
Heat
86.6</title><text class="label" dy="0.35em" x="804.3333333333334" y="421.1555022003147"/></g><g class="link" style="opacity: 0.8;"><path d="M400.6666666666667,106.83442953245914 A128.29160977773668 128.29160977773668 1.182934337842697 0 1 519.4287490302038,186.60485906857886 L683.7977743454469,588.920046483581 A124.80618859271026 124.80618859271026 1.182934337842697 0 0 799.3333333333334,666.5232762665327 L799.3333333333334,670.008697451559 A128.29160977773668 128.29160977773668 1.182934337842697 0 1 680.5712509697962,590.2382679154393 L516.2022256545531,187.92308050043718 A124.80618859271026 124.80618859271026 1.182934337842697 0 0 400.6666666666667,110.31985071748555 Z" style="fill: rgb(0, 0, 0);"/><title> → Losses
Coal
90.7</title><text class="label" dy="0.35em" x="404.6666666666667" y="108.57714012497235"/></g><g class="link" style="opacity: 0.8;"><path d="M400.6666666666667,511.30061376466904 A119.72282186601484 119.72282186601484 0.9089847543886325 0 0 495.1136339451043,465.15308970618776 L669.6031547791472,241.16478716810843 A164.4485101559744 164.4485101559744 0.9089847543886325 0 1 799.3333333333334,177.77761118509352 L799.3333333333334,181.34912273579067 A160.87699860527724 160.87699860527724 0.9089847543886325 0 0 672.4206496335598,243.3596487815414 L497.93112879951696,467.34795131962073 A123.29433341671196 123.29433341671196 0.9089847543886325 0 1 400.6666666666667,514.8721253153661 Z" style="fill: rgb(144, 238, 144);"/><title>     → Industry
Renewables
92.9</title><text class="label" dy="0.35em" x="404.6666666666667" y="513.0863695400176"/></g><g class="link" style="opacity: 0.8;"><path d="M800.3333333333334,173.8803942915915 A1001.7886586912219 1001.7886586912219 0.029626933531333277 0 1 830.0089175758592,174.32002473031534 L1169.430385197659,184.37898526449652 A998.2113413087781 998.2113413087781 0.029626933531333277 0 0 1199,184.81704581360674 L1199,188.39436319605073 A1001.7886586912219 1001.7886586912219 0.029626933531333277 0 1 1169.3244157574743,187.9547327573269 L829.9029481356745,177.8957722231457 A998.2113413087781 998.2113413087781 0.029626933531333277 0 0 800.3333333333334,177.4577116740355 Z" style="fill: rgb(105, 105, 105);"/><title>Industry → Chemical
Heat
93.1</title><text class="label" dy="0.35em" x="804.3333333333334" y="175.6690529828135"/></g><g class="link" style="opacity: 0.8;"><path d="M400.6666666666667,668.2621364709489 A202.93523166867368 202.93523166867368 0.7453380163834193 0 0 538.3014488985245,614.4556242777918 L707.2400278813928,458.53780636422744 A135.78672464886273 135.78672464886273 0.7453380163834193 0 1 799.3333333333334,422.53513696369413 L799.3333333333334,426.3518442211851 A131.97001739137175 131.97001739137175 0.7453380163834193 0 0 709.8285960068389,461.34254687794873 L540.8900170239706,617.2603647915131 A206.75193892616466 206.75193892616466 0.7453380163834193 0 1 400.6666666666667,672.07884372844 Z" style="fill: rgb(105, 105, 105);"/><title>Electricity generation → Buildings
Heat
99.3</title><text class="label" dy="0.35em" x="404.6666666666667" y="670.1704900996945"/></g><g class="link" style="opacity: 0.8;"><path d="M400.6666666666667,335.0143916336799 A123.38519941614213 123.38519941614213 0.8721519841832459 0 1 495.1445427574976,379.04066991094334 L701.0985461025358,624.2317149654913 A128.29160977773668 128.29160977773668 0.8721519841832459 0 0 799.3333333333334,670.0086974515591 L799.3333333333334,673.9484349869356 A132.23134731311316 132.23134731311316 0.8721519841832459 0 1 698.0818306742752,626.7656762660143 L492.12782732923694,381.5746312114664 A119.44546188076565 119.44546188076565 0.8721519841832459 0 0 400.6666666666667,338.9541291690564 Z" style="fill: rgb(255, 140, 0);"/><title>  → Losses
Oil
103</title><text class="label" dy="0.35em" x="404.6666666666667" y="336.98426040136815"/></g><g class="link" style="opacity: 0.8;"><path d="M1,413.1729929013251 A136.32153380922546 136.32153380922546 0.6986800185605225 0 1 88.68303961185151,445.11423573315255 L297.73402317170275,620.7242623074615 A158.47550869557531 158.47550869557531 0.6986800185605225 0 0 399.6666666666667,657.8563614314825 L399.6666666666667,662.2281567594247 A162.8473040235174 162.8473040235174 0.6986800185605225 0 1 294.9220514149053,624.0717104741086 L85.87106785505404,448.4616838997997 A131.94973848128336 131.94973848128336 0.6986800185605225 0 0 1,417.54478822926717 Z" style="fill: rgb(255, 140, 0);"/><title>Oil → Electricity generation
Oil
114</title><text class="label" dy="0.35em" x="5" y="415.3588905652961"/></g><g class="link" style="opacity: 0.8;"><path d="M400.6666666666667,88 A0 0 0 0 0 400.6666666666667,88 L799.3333333333334,88 A0 0 0 0 0 799.3333333333334,88 L799.3333333333334,92.74006395168729 A0 0 0 0 0 799.3333333333334,92.74006395168729 L400.6666666666667,92.74006395168729 A0 0 0 0 0 400.6666666666667,92.74006395168729 Z" style="fill: rgb(0, 0, 0);"/><title> → Own use
Coal
123</title><text class="label" dy="0.35em" x="404.6666666666667" y="90.37003197584365"/></g><g class="link" style="opacity: 0.8;"><path d="M800.3333333333334,148.75336109221325 A399.01670763332885 399.01670763332885 0.18608594954471092 0 0 874.1569482444833,141.8647025091808 L1122.2075893396225,95.16568403544088 A415.06305143427045 415.06305143427045 0.18608594954471092 0 1 1199,88 L1199,93.01391777689156 A410.04913365737895 410.04913365737895 0.18608594954471092 0 0 1123.1352335411718,100.09304110680893 L875.0845924460326,146.79205958054888 A404.03062541022035 404.03062541022035 0.18608594954471092 0 1 800.3333333333334,153.7672788691048 Z" style="fill: rgb(0, 0, 0);"/><title>Industry → Iron and steel
Coal
130</title><text class="label" dy="0.35em" x="804.3333333333334" y="151.26031998065903"/></g><g class="link" style="opacity: 0.8;"><path d="M800.3333333333334,382.5274707522044 A163.72824573618925 163.72824573618925 0.852198301626715 0 1 923.5764025363563,438.46849857611573 L1087.4672095083602,625.8599764954024 A148.1711567826664 148.1711567826664 0.852198301626715 0 0 1199,676.4856139167906 L1199,681.6361129884978 A153.32165585437355 153.32165585437355 0.852198301626715 0 1 1083.590277274277,629.2507046089472 L919.6994703022732,441.85922668966066 A158.5777466644821 158.5777466644821 0.852198301626715 0 0 800.3333333333334,387.67796982391155 Z" style="fill: rgb(70, 130, 180);"/><title>Buildings → Services
Gas
134</title><text class="label" dy="0.35em" x="804.3333333333334" y="385.102720288058"/></g><g class="link" style="opacity: 0.8;"><path d="M800.3333333333334,212.8349513615923 A188.6543936471859 188.6543936471859 0.46402557321601656 0 1 884.7659137771874,232.78362607198724 L1112.3342410783298,346.67532590538764 A193.64416097898658 193.64416097898658 0.46402557321601656 0 0 1199,367.1516281120645 L1199,372.5008060832596 A198.99333895018168 198.99333895018168 0.46402557321601656 0 1 1109.940207784803,351.45887161511024 L882.3718804836609,237.56717178170985 A183.3052156759908 183.3052156759908 0.46402557321601656 0 0 800.3333333333334,218.1841293327874 Z" style="fill: rgb(70, 130, 180);"/><title>Industry → Other industry
Gas
139</title><text class="label" dy="0.35em" x="804.3333333333334" y="215.50954034718984"/></g><g class="link" style="opacity: 0.8;"><path d="M400.6666666666667,629.0300764762181 A163.70317167394285 163.70317167394285 1.0548389401622726 0 0 543.0590866886052,546.0927833426849 L692.926929638735,281.87173818362425 A122.33141180225682 122.33141180225682 1.0548389401622726 0 1 799.3333333333334,219.89470953881107 L799.3333333333334,225.2771731738269 A116.94894816724103 116.94894816724103 1.0548389401622726 0 0 697.6087083412059,284.527272586218 L547.7408653910761,548.7483177452787 A169.08563530895867 169.08563530895867 1.0548389401622726 0 1 400.6666666666667,634.4125401112339 Z" style="fill: rgb(105, 105, 105);"/><title>Electricity generation → Industry
Heat
140</title><text class="label" dy="0.35em" x="404.6666666666667" y="631.721308293726"/></g><g class="link" style="opacity: 0.8;"><path d="M400.6666666666667,244.04001960468182 A226.34057184984187 226.34057184984187 0.34668661305516313 0 1 477.57344152472933,257.5064444891284 L724.5091490925439,346.7189164452532 A220.21140114787613 220.21140114787613 0.34668661305516313 0 0 799.3333333333334,359.82067839637153 L799.3333333333334,365.9498490983373 A226.34057184984187 226.34057184984187 0.34668661305516313 0 1 722.4265584752708,352.4834242138907 L475.4908509074562,263.2709522577659 A220.21140114787613 220.21140114787613 0.34668661305516313 0 0 400.6666666666667,250.16919030664755 Z" style="fill: rgb(255, 140, 0);"/><title>  → Buildings
Oil
159</title><text class="label" dy="0.35em" x="404.6666666666667" y="247.10460495566468"/></g><g class="link" style="opacity: 0.8;"><path d="M800.3333333333334,153.7672788691048 A404.03062541022035 404.03062541022035 0.18608594954471092 0 0 875.0845924460327,146.79205958054888 L1123.1352335411718,100.09304110680891 A410.04913365737895 410.04913365737895 0.18608594954471092 0 1 1199,93.01391777689155 L1199,99.214798859797 A403.8482525744735 403.8482525744735 0.18608594954471092 0 0 1124.2824823866888,106.1868696481116 L876.2318412915495,152.88588812185156 A410.2315064931258 410.2315064931258 0.18608594954471092 0 1 800.3333333333334,159.96815995201024 Z" style="fill: rgb(135, 206, 235);"/><title>Industry → Iron and steel
Electricity
161</title><text class="label" dy="0.35em" x="804.3333333333334" y="156.86771941055753"/></g><g class="link" style="opacity: 0.8;"><path d="M1,775.3521350708627 A126.725706654243 126.725706654243 0.7203925029238054 0 0 84.5983770500936,743.8667354384244 L311.8879758785868,544.3604321032335 A133.06259058878774 133.06259058878774 0.7203925029238054 0 1 399.6666666666667,511.300613764669 L399.6666666666667,517.6374976992137 A126.725706654243 126.725706654243 0.7203925029238054 0 0 316.06828961657305,549.122897331652 L88.77869078807987,748.6292006668428 A133.06259058878774 133.06259058878774 0.7203925029238054 0 1 1,781.6890190054073 Z" style="fill: rgb(144, 238, 144);"/><title>Renewables →     
Renewables
165</title><text class="label" dy="0.35em" x="5" y="778.520577038135"/></g><g class="link" style="opacity: 0.8;"><path d="M400.6666666666667,583.6374976992138 A118.31059289693854 118.31059289693854 1.0922441262790117 0 0 505.6865500271859,519.8082822680485 L685.3611233039558,173.46236360562597 A128.3958742942124 128.3958742942124 1.0922441262790117 0 1 799.3333333333334,104.19208340394363 L799.3333333333334,110.8538688142255 A121.73408888393053 121.73408888393053 1.0922441262790117 0 0 691.2745407725847,176.5300791554053 L511.59996749581495,522.8759978178277 A124.97237830722042 124.97237830722042 1.0922441262790117 0 1 400.6666666666667,590.2992831094957 Z" style="fill: rgb(135, 206, 235);"/><title>Electricity generation → Own use
Electricity
173</title><text class="label" dy="0.35em" x="404.6666666666667" y="586.9683904043547"/></g><g class="link" style="opacity: 0.8;"><path d="M800.3333333333334,193.280871099837 A208.20847390894122 208.20847390894122 0.4640255732160168 0 1 893.5173741740964,215.29723148063422 L1121.0857014752387,329.18893131403456 A174.09008071723127 174.09008071723127 0.4640255732160168 0 0 1199,347.5975478503092 L1199,354.6908766490303 A181.18340951595235 181.18340951595235 0.4640255732160168 0 1 1117.911070644574,335.5321980225814 L890.3427433434317,221.64049818918105 A201.11514511022014 201.11514511022014 0.4640255732160168 0 0 800.3333333333334,200.37419989855806 Z" style="fill: rgb(0, 0, 0);"/><title>Industry → Other industry
Coal
185</title><text class="label" dy="0.35em" x="804.3333333333334" y="196.82753549919752"/></g><g class="link" style="opacity: 0.8;"><path d="M800.3333333333334,163.2593426537757 A1003.8017186604334 1003.8017186604334 0.029626933531333277 0 1 830.0685496451418,163.69985651479598 L1169.4900172669415,173.75881704897716 A996.1982813395666 996.1982813395666 0.029626933531333277 0 0 1199,174.19599417579093 L1199,181.79943149665758 A1003.8017186604334 1003.8017186604334 0.029626933531333277 0 1 1169.2647836881918,181.35891763563728 L829.8433160663918,171.2999571014561 A996.1982813395666 996.1982813395666 0.029626933531333277 0 0 800.3333333333334,170.86277997464234 Z" style="fill: rgb(135, 206, 235);"/><title>Industry → Chemical
Electricity
198</title><text class="label" dy="0.35em" x="804.3333333333334" y="167.061061314209"/></g><g class="link" style="opacity: 0.8;"><path d="M400.6666666666667,176.31985071748556 A293.4369470818238 293.4369470818238 0.2533412149736587 0 0 474.2136787133086,166.95345637161884 L723.6109465012515,102.38349767037806 A302.1162301422077 302.1162301422077 0.2533412149736587 0 1 799.3333333333334,92.74006395168729 L799.3333333333334,101.4193470120712 A293.4369470818238 293.4369470818238 0.2533412149736587 0 0 725.7863212866915,110.78574135793792 L476.38905349874847,175.3557000591787 A302.1162301422077 302.1162301422077 0.2533412149736587 0 1 400.6666666666667,184.99913377786947 Z" style="fill: rgb(255, 140, 0);"/><title>  → Own use
Oil
226</title><text class="label" dy="0.35em" x="404.6666666666667" y="180.65949224767752"/></g><g class="link" style="opacity: 0.8;"><path d="M1,781.6890190054074 A0 0 0 0 0 1,781.6890190054074 L399.6666666666667,781.6890190054073 A0 0 0 0 1 399.6666666666667,781.6890190054073 L399.6666666666667,792 A0 0 0 0 0 399.6666666666667,792 L1,792.0000000000001 A0 0 0 0 1 1,792.0000000000001 Z" style="fill: rgb(144, 238, 144);"/><title>Renewables → Electricity generation
Renewables
268</title><text class="label" dy="0.35em" x="5" y="786.8445095027038"/></g><g class="link" style="opacity: 0.8;"><path d="M800.3333333333334,392.50813478789325 A153.7475817005004 153.7475817005004 0.9598193124630503 0 1 926.2661213120286,458.05564964791427 L1100.565251973491,706.9213960442302 A120.17604555006092 120.17604555006092 0.9598193124630503 0 0 1199,758.156290566708 L1199,768.5343899562018 A130.55414493955487 130.55414493955487 0.9598193124630503 0 1 1092.0646760581906,712.874979506854 L917.7655453967282,464.00923311053805 A143.36948231100644 143.36948231100644 0.9598193124630503 0 0 800.3333333333334,402.8862341773872 Z" style="fill: rgb(135, 206, 235);"/><title>Buildings → Residential
Electricity
270</title><text class="label" dy="0.35em" x="804.3333333333334" y="397.69718448264024"/></g><g class="link" style="opacity: 0.8;"><path d="M800.3333333333334,178.87095326189768 A315.3337488696678 315.3337488696678 0.2515407873809956 0 1 878.8188164794021,188.79448273554252 L1125.6293572073764,252.22079693316687 A294.7836838274479 294.7836838274479 0.2515407873809956 0 0 1199,261.4976173981414 L1199,273.7781343343555 A307.064200763662 307.064200763662 0.2515407873809956 0 1 1122.5727788725894,264.1148469206165 L875.7622381446149,200.68853272299216 A303.0532319334537 303.0532319334537 0.2515407873809956 0 0 800.3333333333334,191.15147019811178 Z" style="fill: rgb(135, 206, 235);"/><title>Industry → Machinery
Electricity
320</title><text class="label" dy="0.35em" x="804.3333333333334" y="185.01121173000473"/></g><g class="link" style="opacity: 0.8;"><path d="M800.3333333333334,200.3741998985581 A201.11514511022014 201.11514511022014 0.46402557321601634 0 1 890.3427433434315,221.64049818918107 L1117.911070644574,335.5321980225814 A181.18340951595235 181.18340951595235 0.46402557321601634 0 0 1199,354.69087664903026 L1199,367.15162811206443 A193.64416097898658 193.64416097898658 0.46402557321601634 0 1 1112.3342410783298,346.6753259053876 L884.7659137771873,232.78362607198727 A188.6543936471859 188.6543936471859 0.46402557321601634 0 0 800.3333333333334,212.83495136159232 Z" style="fill: rgb(135, 206, 235);"/><title>Industry → Other industry
Electricity
324</title><text class="label" dy="0.35em" x="804.3333333333334" y="206.6045756300752"/></g><g class="link" style="opacity: 0.8;"><path d="M400.6666666666667,407.7268655609288 A128.33826384896184 128.33826384896184 0.7020581637464524 0 0 483.54629723591466,377.37674795665674 L684.9675526561265,207.0120673519763 A177.09424662047033 177.09424662047033 0.7020581637464524 0 1 799.3333333333334,165.13187472059758 L799.3333333333334,177.77761118509352 A164.4485101559744 164.4485101559744 0.7020581637464524 0 0 693.1340490307927,216.66727256429814 L491.71279361058083,387.03195316897865 A140.98400031345778 140.98400031345778 0.7020581637464524 0 1 400.6666666666667,420.3726020254247 Z" style="fill: rgb(70, 130, 180);"/><title>   → Industry
Gas
329</title><text class="label" dy="0.35em" x="404.6666666666667" y="414.04973379317676"/></g><g class="link" style="opacity: 0.8;"><path d="M400.6666666666667,92.74006395168729 A440.54966674189905 440.54966674189905 0.17106433428590861 0 1 475.6619847894252,99.17026427211316 L726.5611287323771,142.51377354119833 A427.4902925612829 427.4902925612829 0.17106433428590861 0 0 799.3333333333334,148.75336109221325 L799.3333333333334,161.8127352728294 A440.54966674189905 440.54966674189905 0.17106433428590861 0 1 724.3380152105748,155.38253495240352 L473.43887126762286,112.03902568331834 A427.4902925612829 427.4902925612829 0.17106433428590861 0 0 400.6666666666667,105.79943813230344 Z" style="fill: rgb(0, 0, 0);"/><title> → Industry
Coal
340</title><text class="label" dy="0.35em" x="404.6666666666667" y="99.26975104199536"/></g><g class="link" style="opacity: 0.8;"><path d="M800.3333333333334,402.8862341773872 A143.36948231100644 143.36948231100644 0.9598193124630503 0 1 917.765545396728,464.00923311053805 L1092.0646760581906,712.8749795068541 A130.55414493955487 130.55414493955487 0.9598193124630503 0 0 1199,768.534389956202 L1199,785.1398637696839 A147.1596187530368 147.1596187530368 0.9598193124630503 0 1 1078.463332935197,722.4010083657663 L904.1642022737345,473.5352619694503 A126.76400849752451 126.76400849752451 0.9598193124630503 0 0 800.3333333333334,419.49170799086914 Z" style="fill: rgb(70, 130, 180);"/><title>Buildings → Residential
Gas
432</title><text class="label" dy="0.35em" x="804.3333333333334" y="411.1889710841282"/></g><g class="link" style="opacity: 0.8;"><path d="M400.6666666666667,421.8576059656163 A423.92962560423416 423.92962560423416 0.17074599346128672 0 0 472.69974650947535,415.69294164141303 L723.6035320602564,372.43088260691286 A445.6855984894232 445.6855984894232 0.17074599346128672 0 1 799.3333333333334,365.94984909833727 L799.3333333333334,387.70582198352633 A423.92962560423416 423.92962560423416 0.17074599346128672 0 0 727.3002534905247,393.8704863077296 L476.3964679397437,437.1325453422298 A445.6855984894232 445.6855984894232 0.17074599346128672 0 1 400.6666666666667,443.61357885080537 Z" style="fill: rgb(70, 130, 180);"/><title>   → Buildings
Gas
566</title><text class="label" dy="0.35em" x="404.6666666666667" y="432.73559240821083"/></g><g class="link" style="opacity: 0.8;"><path d="M1,88 A0 0 0 0 0 1,88 L399.6666666666667,88 A0 0 0 0 0 399.6666666666667,88 L399.6666666666667,110.31985071748556 A0 0 0 0 0 399.6666666666667,110.31985071748556 L1,110.31985071748556 A0 0 0 0 0 1,110.31985071748556 Z" style="fill: rgb(0, 0, 0);"/><title>Coal → 
Coal
581</title><text class="label" dy="0.35em" x="5" y="99.15992535874278"/></g><g class="link" style="opacity: 0.8;"><path d="M800.3333333333334,359.5630718251781 A186.69264466321556 186.69264466321556 0.8521983016267148 0 1 940.8623814671362,423.3503455644467 L1104.75318843914,610.7418234837332 A125.20675785564009 125.20675785564009 0.8521983016267148 0 0 1199,653.5212149897643 L1199,676.4856139167905 A148.1711567826664 148.1711567826664 0.8521983016267148 0 1 1087.4672095083602,625.8599764954024 L923.5764025363562,438.46849857611573 A163.72824573618925 163.72824573618925 0.8521983016267148 0 0 800.3333333333334,382.5274707522044 Z" style="fill: rgb(135, 206, 235);"/><title>Buildings → Services
Electricity
598</title><text class="label" dy="0.35em" x="804.3333333333334" y="371.04527128869125"/></g><g class="link" style="opacity: 0.8;"><path d="M400.6666666666667,634.9196381544286 A169.5927333521534 169.5927333521534 0.7453380163834191 0 0 515.68789157225,589.9535994831252 L684.6264705551183,434.035781569561 A169.129222965383 169.129222965383 0.7453380163834191 0 1 799.3333333333334,389.19263864717385 L799.3333333333334,422.53513696369413 A135.78672464886273 135.78672464886273 0.7453380163834191 0 0 707.2400278813928,458.53780636422744 L538.3014488985245,614.4556242777918 A202.93523166867368 202.93523166867368 0.7453380163834191 0 1 400.6666666666667,668.2621364709489 Z" style="fill: rgb(135, 206, 235);"/><title>Electricity generation → Buildings
Electricity
868</title><text class="label" dy="0.35em" x="404.6666666666667" y="651.5908873126888"/></g><g class="link" style="opacity: 0.8;"><path d="M400.6666666666667,590.4844896731977 A125.15758487092245 125.15758487092245 1.0548389401622726 0 0 509.53133441646395,527.0756308332501 L659.3991773665938,262.8545856741894 A160.87699860527724 160.87699860527724 1.0548389401622726 0 1 799.3333333333334,181.34912273579064 L799.3333333333334,219.89470953881104 A122.33141180225684 122.33141180225684 1.0548389401622726 0 0 692.926929638735,281.87173818362425 L543.0590866886052,546.092783342685 A163.70317167394285 163.70317167394285 1.0548389401622726 0 1 400.6666666666667,629.030076476218 Z" style="fill: rgb(135, 206, 235);"/><title>Electricity generation → Industry
Electricity
1.00k</title><text class="label" dy="0.35em" x="404.6666666666667" y="609.7572830747079"/></g><g class="link" style="opacity: 0.8;"><path d="M1,483.5447882292672 A294.9626875513099 294.9626875513099 0.2385922536680407 0 0 70.71000495551633,475.18897822382775 L320.4213755214062,414.4528890250924 A335.30917214692255 335.30917214692255 0.2385922536680407 0 1 399.6666666666667,404.9541291690564 L399.6666666666667,445.30061376466904 A294.9626875513099 294.9626875513099 0.2385922536680407 0 0 329.9566617111504,453.6564237701085 L80.24529114526047,514.3925129688438 A335.30917214692255 335.30917214692255 0.2385922536680407 0 1 1,523.8912728248798 Z" style="fill: rgb(70, 130, 180);"/><title>Gas →   
Gas
1.05k</title><text class="label" dy="0.35em" x="5" y="503.71803052707355"/></g><g class="link" style="opacity: 0.8;"><path d="M1,523.8912728248798 A215.91091316855025 215.91091316855025 0.4098684737006284 0 1 87.03805889471285,541.7744736728885 L331.82003672080793,648.1260846558793 A170.25985959243056 170.25985959243056 0.4098684737006284 0 0 399.6666666666667,662.2281567594246 L399.6666666666667,707.8792103355443 A215.91091316855025 215.91091316855025 0.4098684737006284 0 1 313.62860777195385,689.9960094875356 L68.8466299458588,583.6443985045448 A170.25985959243056 170.25985959243056 0.4098684737006284 0 0 1,569.5423264009995 Z" style="fill: rgb(70, 130, 180);"/><title>Gas → Electricity generation
Gas
1.19k</title><text class="label" dy="0.35em" x="5" y="546.7167996129397"/></g><g class="link" style="opacity: 0.8;"><path d="M800.3333333333334,264.5645570691675 A207.98720339433962 207.98720339433962 0.5741577190089849 0 1 913.2969576655684,297.9152913239712 L1114.062468174075,427.7804896968923 A156.38591459968518 156.38591459968518 0.5741577190089849 0 0 1199,452.8569607195825 L1199,505.42770877319185 A208.95666265329453 208.95666265329453 0.5741577190089849 0 1 1085.509835429968,471.92152179058274 L884.7443249214613,342.05632341766164 A155.41645534073027 155.41645534073027 0.5741577190089849 0 0 800.3333333333334,317.13530512277686 Z" style="fill: rgb(255, 140, 0);"/><title>Transport → Road
Oil
1.37k</title><text class="label" dy="0.35em" x="804.3333333333334" y="290.8499310959722"/></g><g class="link" style="opacity: 0.8;"><path d="M400.6666666666667,188.31827322563765 A358.3232626843719 358.3232626843719 0.22696409181157673 0 1 481.2967520198827,197.50782238937788 L731.2417840855169,255.23094819651513 A302.6015163053278 302.6015163053278 0.22696409181157673 0 0 799.3333333333334,262.9914588881126 L799.3333333333334,318.71320526715675 A358.3232626843719 358.3232626843719 0.22696409181157673 0 1 718.7032479801173,309.5236561034165 L468.75821591448306,251.80053029627928 A302.6015163053278 302.6015163053278 0.22696409181157673 0 0 400.6666666666667,244.0400196046818 Z" style="fill: rgb(255, 140, 0);"/><title>  → Transport
Oil
1.45k</title><text class="label" dy="0.35em" x="404.6666666666667" y="216.17914641515972"/></g><g class="link" style="opacity: 0.8;"><path d="M1,635.5423264009996 A377.32819939355153 377.32819939355153 0.2200103159485045 0 1 83.34798940619366,644.6377479238988 L333.42690705137625,700.5629596338451 A303.51839072368847 303.51839072368847 0.2200103159485045 0 0 399.6666666666667,707.8792103355443 L399.6666666666667,781.6890190054073 A377.32819939355153 377.32819939355153 0.2200103159485045 0 1 317.318677260473,772.5935974825081 L67.23975961529048,716.6683857725618 A303.51839072368847 303.51839072368847 0.2200103159485045 0 0 1,709.3521350708627 Z" style="fill: rgb(255, 0, 0);"/><title>Nuclear → Electricity generation
Nuclear
1.92k</title><text class="label" dy="0.35em" x="5" y="672.4472307359312"/></g><g class="link" style="opacity: 0.8;"><path d="M1,110.31985071748556 A158.47550869557531 158.47550869557531 1.0795054246789835 0 1 140.73175319143388,194.03224012039377 L325.3755107924357,539.1301468094302 A84.25664496330663 84.25664496330663 1.0795054246789835 0 0 399.6666666666667,583.6374976992138 L399.6666666666667,657.8563614314824 A158.47550869557531 158.47550869557531 1.0795054246789835 0 1 259.9349134752328,574.1439720285741 L75.29115587423098,229.04606533953776 A84.25664496330663 84.25664496330663 1.0795054246789835 0 0 1,184.53871444975425 Z" style="fill: rgb(0, 0, 0);"/><title>Coal → Electricity generation
Coal
1.93k</title><text class="label" dy="0.35em" x="5" y="147.4292825836199"/></g><g class="link" style="opacity: 0.8;"><path d="M400.6666666666667,253.29174757065246 A205.10784347916956 205.10784347916956 0.8686809573140238 0 1 557.2619350758803,325.9339375070192 L707.3064631873791,503.310204671713 A120.53641894497804 120.53641894497804 0.8686809573140238 0 0 799.3333333333334,546.0000857153884 L799.3333333333334,627.7227297784159 A202.25906300800546 202.25906300800546 0.8686809573140238 0 1 644.913045339075,556.0894805464271 L494.8685172275761,378.71321338173334 A123.38519941614214 123.38519941614214 0.8686809573140238 0 0 400.6666666666667,335.0143916336799 Z" style="fill: rgb(255, 140, 0);"/><title>  → Non-energy
Oil
2.13k</title><text class="label" dy="0.35em" x="404.6666666666667" y="294.15306960216617"/></g><g class="link" style="opacity: 0.8;"><path d="M400.6666666666667,678.0087366531702 A0 0 0 0 0 400.6666666666667,678.0087366531702 L799.3333333333334,678.0087366531702 A0 0 0 0 0 799.3333333333334,678.0087366531702 L799.3333333333334,792 A0 0 0 0 0 799.3333333333334,792 L400.6666666666667,792 A0 0 0 0 0 400.6666666666667,792 Z" style="fill: rgb(211, 211, 211);"/><title>Electricity generation → Losses
Transformation losses
2.97k</title><text class="label" dy="0.35em" x="404.6666666666667" y="735.0043683265851"/></g><g class="link" style="opacity: 0.8;"><path d="M1,250.53871444975425 A251.03142266682374 251.03142266682374 0.22561293839533536 0 0 57.15668540925057,244.17686866157715 L307.1280737067948,186.80330880578322 A413.66570111839457 413.66570111839457 0.22561293839533536 0 1 399.6666666666667,176.31985071748556 L399.6666666666667,338.9541291690564 A251.03142266682374 251.03142266682374 0.22561293839533536 0 0 343.50998125741614,345.3159749572335 L93.53859295987186,402.6895348130274 A413.66570111839457 413.66570111839457 0.22561293839533536 0 1 1,413.1729929013251 Z" style="fill: rgb(255, 140, 0);"/><title>Oil →  
Oil
4.23k</title><text class="label" dy="0.35em" x="5" y="331.85585367553966"/></g></g><g class="nodes"><g class="node" transform="translate(0,88)"><title>Coal</title><line x1="0" x2="0" y1="0" y2="96.53871444975425" style="display: inline; stroke: rgb(0, 0, 0);"/><rect class="node-body" width="1" height="96.53871444975425" style="fill: none;"/><text class="node-value" dy=".35em" text-anchor="middle" transform="translate(0.5,48.269357224877126) rotate(-90)" style="display: none;"/><text class="node-title" dy=".35em" text-anchor="end" transform="translate(-4,48.269357224877126)" style="display: inline;">Coal</text><rect class="node-click-target" x="-5" y="-5" width="10" height="101.53871444975425" style="fill: none; visibility: hidden; pointer-events: all;"/></g><g class="node" transform="translate(0,250.53871444975425)"><title>Oil</title><line x1="0" x2="0" y1="0" y2="167.00607377951292" style="display: inline; stroke: rgb(0, 0, 0);"/><rect class="node-body" width="1" height="167.00607377951292" style="fill: none;"/><text class="node-value" dy=".35em" text-anchor="middle" transform="translate(0.5,83.50303688975646) rotate(-90)" style="display: none;"/><text class="node-title" dy=".35em" text-anchor="end" transform="translate(-4,83.50303688975646)" style="display: inline;">Oil</text><rect class="node-click-target" x="-5" y="-5" width="10" height="172.00607377951292" style="fill: none; visibility: hidden; pointer-events: all;"/></g><g class="node" transform="translate(0,483.5447882292672)"><title>Gas</title><line x1="0" x2="0" y1="0" y2="85.99753817173229" style="display: inline; stroke: rgb(0, 0, 0);"/><rect class="node-body" width="1" height="85.99753817173229" style="fill: none;"/><text class="node-value" dy=".35em" text-anchor="middle" transform="translate(0.5,42.998769085866144) rotate(-90)" style="display: none;"/><text class="node-title" dy=".35em" text-anchor="end" transform="translate(-4,42.998769085866144)" style="display: inline;">Gas</text><rect class="node-click-target" x="-5" y="-5" width="10" height="90.99753817173229" style="fill: none; visibility: hidden; pointer-events: all;"/></g><g class="node" transform="translate(0,635.5423264009996)"><title>Nuclear</title><line x1="0" x2="0" y1="0" y2="73.80980866986306" style="display: inline; stroke: rgb(0, 0, 0);"/><rect class="node-body" width="1" height="73.80980866986306" style="fill: none;"/><text class="node-value" dy=".35em" text-anchor="middle" transform="translate(0.5,36.90490433493153) rotate(-90)" style="display: none;"/><text class="node-title" dy=".35em" text-anchor="end" transform="translate(-4,36.90490433493153)" style="display: inline;">Nuclear</text><rect class="node-click-target" x="-5" y="-5" width="10" height="78.80980866986306" style="fill: none; visibility: hidden; pointer-events: all;"/></g><g class="node" transform="translate(0,775.3521350708627)"><title>Renewables</title><line x1="0" x2="0" y1="0" y2="16.647864929137427" style="display: inline; stroke: rgb(0, 0, 0);"/><rect class="node-body" width="1" height="16.647864929137427" style="fill: none;"/><text class="node-value" dy=".35em" text-anchor="middle" transform="translate(0.5,8.323932464568713) rotate(-90)" style="display: none;"/><text class="node-title" dy=".35em" text-anchor="end" transform="translate(-4,8.323932464568713)" style="display: inline;">Renewables</text><rect class="node-click-target" x="-5" y="-5" width="10" height="21.647864929137427" style="fill: none; visibility: hidden; pointer-events: all;"/></g><g class="node" transform="translate(399.6666666666667,88)"><title/><line x1="0" x2="0" y1="-5" y2="22.319850717485565" style="display: none; stroke: rgb(0, 0, 0);"/><rect class="node-body" width="1" height="22.319850717485565" style="fill: none;"/><text class="node-value" dy=".35em" text-anchor="middle" transform="translate(0.5,11.159925358742782) rotate(-90)" style="display: none;"/><text class="node-title" dy=".35em" text-anchor="start" transform="translate(-4,-10)" style="display: none;"/><rect class="node-click-target" x="-5" y="-5" width="10" height="27.319850717485565" style="fill: none; visibility: hidden; pointer-events: all;"/></g><g class="node" transform="translate(399.6666666666667,176.31985071748556)"><title> </title><line x1="0" x2="0" y1="-5" y2="162.63427845157082" style="display: inline; stroke: rgb(0, 0, 0);"/><rect class="node-body" width="1" height="162.63427845157082" style="fill: none;"/><text class="node-value" dy=".35em" text-anchor="middle" transform="translate(0.5,81.31713922578541) rotate(-90)" style="display: none;"/><text class="node-title" dy=".35em" text-anchor="start" transform="translate(-4,-10)" style="display: inline;"> </text><rect class="node-click-target" x="-5" y="-5" width="10" height="167.63427845157082" style="fill: none; visibility: hidden; pointer-events: all;"/></g><g class="node" transform="translate(399.6666666666667,404.9541291690564)"><title>  </title><line x1="0" x2="0" y1="-5" y2="40.346484595612594" style="display: inline; stroke: rgb(0, 0, 0);"/><rect class="node-body" width="1" height="40.346484595612594" style="fill: none;"/><text class="node-value" dy=".35em" text-anchor="middle" transform="translate(0.5,20.173242297806297) rotate(-90)" style="display: none;"/><text class="node-title" dy=".35em" text-anchor="start" transform="translate(-4,-10)" style="display: inline;">  </text><rect class="node-click-target" x="-5" y="-5" width="10" height="45.346484595612594" style="fill: none; visibility: hidden; pointer-events: all;"/></g><g class="node" transform="translate(399.6666666666667,511.30061376466904)"><title>    </title><line x1="0" x2="0" y1="-5" y2="6.336883934544744" style="display: inline; stroke: rgb(0, 0, 0);"/><rect class="node-body" width="1" height="6.336883934544744" style="fill: none;"/><text class="node-value" dy=".35em" text-anchor="middle" transform="translate(0.5,3.168441967272372) rotate(-90)" style="display: none;"/><text class="node-title" dy=".35em" text-anchor="start" transform="translate(-4,-10)" style="display: inline;">    </text><rect class="node-click-target" x="-5" y="-5" width="10" height="11.336883934544744" style="fill: none; visibility: hidden; pointer-events: all;"/></g><g class="node" transform="translate(399.6666666666667,583.6374976992138)"><title>Electricity generation</title><line x1="0" x2="0" y1="-5" y2="208.36250230078622" style="display: inline; stroke: rgb(0, 0, 0);"/><rect class="node-body" width="1" height="208.36250230078622" style="fill: none;"/><text class="node-value" dy=".35em" text-anchor="middle" transform="translate(0.5,104.18125115039311) rotate(-90)" style="display: none;"/><text class="node-title" dy=".35em" text-anchor="start" transform="translate(-4,-10)" style="display: inline;">Electricity generation</text><rect class="node-click-target" x="-5" y="-5" width="10" height="213.36250230078622" style="fill: none; visibility: hidden; pointer-events: all;"/></g><g class="node" transform="translate(799.3333333333334,88)"><title>Own use</title><line x1="0" x2="0" y1="0" y2="23.03907537792753" style="display: inline; stroke: rgb(0, 0, 0);"/><rect class="node-body" width="1" height="23.03907537792753" style="fill: none;"/><text class="node-value" dy=".35em" text-anchor="middle" transform="translate(0.5,11.519537688963766) rotate(-90)" style="display: none;"/><text class="node-title" dy=".35em" text-anchor="start" transform="translate(5,11.519537688963766)" style="display: inline;">Own use</text><rect class="node-click-target" x="-5" y="-5" width="10" height="28.03907537792753" style="fill: none; visibility: hidden; pointer-events: all;"/></g><g class="node" transform="translate(799.3333333333334,148.75336109221325)"><title>Industry</title><line x1="0" x2="0" y1="-5" y2="76.52381208161364" style="display: inline; stroke: rgb(0, 0, 0);"/><rect class="node-body" width="1" height="76.52381208161364" style="fill: none;"/><text class="node-value" dy=".35em" text-anchor="middle" transform="translate(0.5,38.26190604080682) rotate(-90)" style="display: none;"/><text class="node-title" dy=".35em" text-anchor="start" transform="translate(-4,-10)" style="display: inline;">Industry</text><rect class="node-click-target" x="-5" y="-5" width="10" height="81.52381208161364" style="fill: none; visibility: hidden; pointer-events: all;"/></g><g class="node" transform="translate(799.3333333333334,262.9914588881126)"><title>Transport</title><line x1="0" x2="0" y1="-5" y2="58.833031965767134" style="display: inline; stroke: rgb(0, 0, 0);"/><rect class="node-body" width="1" height="58.833031965767134" style="fill: none;"/><text class="node-value" dy=".35em" text-anchor="middle" transform="translate(0.5,29.416515982883567) rotate(-90)" style="display: none;"/><text class="node-title" dy=".35em" text-anchor="start" transform="translate(-4,-10)" style="display: inline;">Transport</text><rect class="node-click-target" x="-5" y="-5" width="10" height="63.833031965767134" style="fill: none; visibility: hidden; pointer-events: all;"/></g><g class="node" transform="translate(799.3333333333334,359.5387765681655)"><title>Buildings</title><line x1="0" x2="0" y1="-5" y2="66.81306765301969" style="display: inline; stroke: rgb(0, 0, 0);"/><rect class="node-body" width="1" height="66.81306765301969" style="fill: none;"/><text class="node-value" dy=".35em" text-anchor="middle" transform="translate(0.5,33.40653382650984) rotate(-90)" style="display: none;"/><text class="node-title" dy=".35em" text-anchor="start" transform="translate(-4,-10)" style="display: inline;">Buildings</text><rect class="node-click-target" x="-5" y="-5" width="10" height="71.81306765301969" style="fill: none; visibility: hidden; pointer-events: all;"/></g><g class="node" transform="translate(799.3333333333334,464.0661299354708)"><title>Agriculture</title><line x1="0" x2="0" y1="0" y2="4.155927736049875" style="display: inline; stroke: rgb(0, 0, 0);"/><rect class="node-body" width="1" height="4.155927736049875" style="fill: none;"/><text class="node-value" dy=".35em" text-anchor="middle" transform="translate(0.5,2.0779638680249377) rotate(-90)" style="display: none;"/><text class="node-title" dy=".35em" text-anchor="start" transform="translate(5,2.0779638680249377)" style="display: inline;">Agriculture</text><rect class="node-click-target" x="-5" y="-5" width="10" height="9.155927736049875" style="fill: none; visibility: hidden; pointer-events: all;"/></g><g class="node" transform="translate(799.3333333333334,505.9363433858064)"><title>Non-specified</title><line x1="0" x2="0" y1="0" y2="1.5970397751742098" style="display: inline; stroke: rgb(0, 0, 0);"/><rect class="node-body" width="1" height="1.5970397751742098" style="fill: none;"/><text class="node-value" dy=".35em" text-anchor="middle" transform="translate(0.5,0.7985198875871049) rotate(-90)" style="display: none;"/><text class="node-title" dy=".35em" text-anchor="start" transform="translate(5,0.7985198875871049)" style="display: inline;">Non-specified</text><rect class="node-click-target" x="-5" y="-5" width="10" height="6.59703977517421" style="fill: none; visibility: hidden; pointer-events: all;"/></g><g class="node" transform="translate(799.3333333333334,545.2476688752664)"><title>Non-energy</title><line x1="0" x2="0" y1="0" y2="83.56132167698047" style="display: inline; stroke: rgb(0, 0, 0);"/><rect class="node-body" width="1" height="83.56132167698047" style="fill: none;"/><text class="node-value" dy=".35em" text-anchor="middle" transform="translate(0.5,41.780660838490235) rotate(-90)" style="display: none;"/><text class="node-title" dy=".35em" text-anchor="start" transform="translate(5,41.780660838490235)" style="display: inline;">Non-energy</text><rect class="node-click-target" x="-5" y="-5" width="10" height="88.56132167698047" style="fill: none; visibility: hidden; pointer-events: all;"/></g><g class="node" transform="translate(799.3333333333334,666.5232762665327)"><title>Losses</title><line x1="0" x2="0" y1="0" y2="125.47672373346734" style="display: inline; stroke: rgb(0, 0, 0);"/><rect class="node-body" width="1" height="125.47672373346734" style="fill: none;"/><text class="node-value" dy=".35em" text-anchor="middle" transform="translate(0.5,62.73836186673367) rotate(-90)" style="display: none;"/><text class="node-title" dy=".35em" text-anchor="start" transform="translate(5,62.73836186673367)" style="display: inline;">Losses</text><rect class="node-click-target" x="-5" y="-5" width="10" height="130.47672373346734" style="fill: none; visibility: hidden; pointer-events: all;"/></g><g class="node" transform="translate(1199,88)"><title>Iron and steel</title><line x1="0" x2="0" y1="0" y2="13.55385395655891" style="display: inline; stroke: rgb(0, 0, 0);"/><rect class="node-body" width="1" height="13.55385395655891" style="fill: none;"/><text class="node-value" dy=".35em" text-anchor="middle" transform="translate(0.5,6.776926978279455) rotate(-90)" style="display: none;"/><text class="node-title" dy=".35em" text-anchor="start" transform="translate(5,6.776926978279455)" style="display: inline;">Iron and steel</text><rect class="node-click-target" x="-5" y="-5" width="10" height="18.55385395655891" style="fill: none; visibility: hidden; pointer-events: all;"/></g><g class="node" transform="translate(1199,173.24386657078742)"><title>Chemical</title><line x1="0" x2="0" y1="0" y2="16.563738213125504" style="display: inline; stroke: rgb(0, 0, 0);"/><rect class="node-body" width="1" height="16.563738213125504" style="fill: none;"/><text class="node-value" dy=".35em" text-anchor="middle" transform="translate(0.5,8.281869106562752) rotate(-90)" style="display: none;"/><text class="node-title" dy=".35em" text-anchor="start" transform="translate(5,8.281869106562752)" style="display: inline;">Chemical</text><rect class="node-click-target" x="-5" y="-5" width="10" height="21.563738213125504" style="fill: none; visibility: hidden; pointer-events: all;"/></g><g class="node" transform="translate(1199,261.4976173981414)"><title>Machinery</title><line x1="0" x2="0" y1="0" y2="14.409917837939304" style="display: inline; stroke: rgb(0, 0, 0);"/><rect class="node-body" width="1" height="14.409917837939304" style="fill: none;"/><text class="node-value" dy=".35em" text-anchor="middle" transform="translate(0.5,7.204958918969652) rotate(-90)" style="display: none;"/><text class="node-title" dy=".35em" text-anchor="start" transform="translate(5,7.204958918969652)" style="display: inline;">Machinery</text><rect class="node-click-target" x="-5" y="-5" width="10" height="19.409917837939304" style="fill: none; visibility: hidden; pointer-events: all;"/></g><g class="node" transform="translate(1199,347.5975478503092)"><title>Other industry</title><line x1="0" x2="0" y1="0" y2="31.99630207398991" style="display: inline; stroke: rgb(0, 0, 0);"/><rect class="node-body" width="1" height="31.99630207398991" style="fill: none;"/><text class="node-value" dy=".35em" text-anchor="middle" transform="translate(0.5,15.998151036994955) rotate(-90)" style="display: none;"/><text class="node-title" dy=".35em" text-anchor="start" transform="translate(5,15.998151036994955)" style="display: inline;">Other industry</text><rect class="node-click-target" x="-5" y="-5" width="10" height="36.99630207398991" style="fill: none; visibility: hidden; pointer-events: all;"/></g><g class="node" transform="translate(1199,451.2838625385276)"><title>Road</title><line x1="0" x2="0" y1="0" y2="55.26302983800093" style="display: inline; stroke: rgb(0, 0, 0);"/><rect class="node-body" width="1" height="55.26302983800093" style="fill: none;"/><text class="node-value" dy=".35em" text-anchor="middle" transform="translate(0.5,27.631514919000466) rotate(-90)" style="display: none;"/><text class="node-title" dy=".35em" text-anchor="start" transform="translate(5,27.631514919000466)" style="display: inline;">Road</text><rect class="node-click-target" x="-5" y="-5" width="10" height="60.26302983800093" style="fill: none; visibility: hidden; pointer-events: all;"/></g><g class="node" transform="translate(1199,578.236904990757)"><title>Other transport</title><line x1="0" x2="0" y1="0" y2="3.5700021277662017" style="display: inline; stroke: rgb(0, 0, 0);"/><rect class="node-body" width="1" height="3.5700021277662017" style="fill: none;"/><text class="node-value" dy=".35em" text-anchor="middle" transform="translate(0.5,1.7850010638831009) rotate(-90)" style="display: none;"/><text class="node-title" dy=".35em" text-anchor="start" transform="translate(5,1.7850010638831009)" style="display: inline;">Other transport</text><rect class="node-click-target" x="-5" y="-5" width="10" height="8.570002127766202" style="fill: none; visibility: hidden; pointer-events: all;"/></g><g class="node" transform="translate(1199,653.4969197327517)"><title>Services</title><line x1="0" x2="0" y1="0" y2="32.71175164853423" style="display: inline; stroke: rgb(0, 0, 0);"/><rect class="node-body" width="1" height="32.71175164853423" style="fill: none;"/><text class="node-value" dy=".35em" text-anchor="middle" transform="translate(0.5,16.355875824267116) rotate(-90)" style="display: none;"/><text class="node-title" dy=".35em" text-anchor="start" transform="translate(5,16.355875824267116)" style="display: inline;">Services</text><rect class="node-click-target" x="-5" y="-5" width="10" height="37.71175164853423" style="fill: none; visibility: hidden; pointer-events: all;"/></g><g class="node" transform="translate(1199,757.8986839955145)"><title>Residential</title><line x1="0" x2="0" y1="0" y2="34.1013160044854" style="display: inline; stroke: rgb(0, 0, 0);"/><rect class="node-body" width="1" height="34.1013160044854" style="fill: none;"/><text class="node-value" dy=".35em" text-anchor="middle" transform="translate(0.5,17.0506580022427) rotate(-90)" style="display: none;"/><text class="node-title" dy=".35em" text-anchor="start" transform="translate(5,17.0506580022427)" style="display: inline;">Residential</text><rect class="node-click-target" x="-5" y="-5" width="10" height="39.1013160044854" style="fill: none; visibility: hidden; pointer-events: all;"/></g></g><g class="slice-titles"/></g></svg>